<svg width="14" height="24" viewBox="0 0 14 24" fill="none" xmlns="http://www.w3.org/2000/svg">
<path d="M8.64758 23.8489H4.69753C4.03774 23.8489 3.50103 23.3387 3.50103 22.7116V14.2434H1.19649C0.53671 14.2434 0 13.733 0 13.1061V9.47744C0 8.85034 0.53671 8.34021 1.19649 8.34021H3.50103V6.5231C3.50103 4.72137 4.09627 3.18848 5.2222 2.09042C6.3532 0.987346 7.93378 0.404419 9.79307 0.404419L12.8056 0.409069C13.4642 0.410143 14 0.920271 14 1.54631V4.91544C14 5.54255 13.4635 6.05268 12.8039 6.05268L10.7756 6.05339C10.157 6.05339 9.99952 6.17127 9.96583 6.2074C9.91032 6.26732 9.84426 6.43671 9.84426 6.90444V8.34003H12.6515C12.8628 8.34003 13.0675 8.38957 13.2435 8.48294C13.6231 8.68453 13.859 9.06569 13.859 9.47762L13.8575 13.1063C13.8575 13.733 13.3208 14.2432 12.661 14.2432H9.84426V22.7116C9.84426 23.3387 9.30736 23.8489 8.64758 23.8489V23.8489ZM4.94707 22.4745H8.39804V13.6281C8.39804 13.2093 8.75654 12.8688 9.1969 12.8688H12.4115L12.4128 9.71462H9.19671C8.75635 9.71462 8.39804 9.37406 8.39804 8.95533V6.90444C8.39804 6.36748 8.45544 5.75683 8.88187 5.29786C9.39713 4.74301 10.2092 4.67898 10.7752 4.67898L12.554 4.67827V1.78313L9.79195 1.77883C6.80391 1.77883 4.94707 3.59684 4.94707 6.5231V8.95533C4.94707 9.37388 4.58876 9.71462 4.1484 9.71462H1.44603V12.8688H4.1484C4.58876 12.8688 4.94707 13.2093 4.94707 13.6281V22.4745ZM12.8028 1.78348H12.8029H12.8028Z" fill="white"/>
</svg>
