<svg width="26" height="25" viewBox="0 0 26 25" fill="none" xmlns="http://www.w3.org/2000/svg">
<path d="M18.3957 0.450623H6.82775C3.06287 0.450623 0 3.32291 0 6.85354V17.7019C0 21.2323 3.06287 24.1046 6.82775 24.1046H18.3959C22.1606 24.1046 25.2234 21.2323 25.2234 17.7019V6.85354C25.2234 3.32291 22.1606 0.450623 18.3957 0.450623V0.450623ZM23.7447 17.7019C23.7447 20.4677 21.3452 22.7179 18.3957 22.7179H6.82775C3.87823 22.7179 1.4787 20.4677 1.4787 17.7019V6.85354C1.4787 4.08754 3.87823 1.83732 6.82775 1.83732H18.3959C21.3452 1.83732 23.7447 4.08754 23.7447 6.85354V17.7019Z" fill="white"/>
<path d="M12.6117 5.80992C8.80869 5.80992 5.71484 8.71126 5.71484 12.2776C5.71484 15.844 8.80869 18.7453 12.6117 18.7453C16.4147 18.7453 19.5085 15.844 19.5085 12.2776C19.5085 8.71126 16.4147 5.80992 12.6117 5.80992V5.80992ZM12.6117 17.3586C9.62425 17.3586 7.19355 15.0793 7.19355 12.2776C7.19355 9.47608 9.62425 7.19662 12.6117 7.19662C15.5993 7.19662 18.0298 9.47608 18.0298 12.2776C18.0298 15.0793 15.5993 17.3586 12.6117 17.3586V17.3586Z" fill="white"/>
<path d="M19.6735 3.51295C18.5496 3.51295 17.6356 4.37035 17.6356 5.42408C17.6356 6.478 18.5496 7.33539 19.6735 7.33539C20.7973 7.33539 21.7116 6.478 21.7116 5.42408C21.7116 4.37017 20.7973 3.51295 19.6735 3.51295ZM19.6735 5.94852C19.3652 5.94852 19.1143 5.71319 19.1143 5.42408C19.1143 5.1348 19.3652 4.89965 19.6735 4.89965C19.982 4.89965 20.2329 5.1348 20.2329 5.42408C20.2329 5.71319 19.982 5.94852 19.6735 5.94852Z" fill="white"/>
</svg>
