<svg width="25" height="19" viewBox="0 0 25 19" fill="none" xmlns="http://www.w3.org/2000/svg">
<path d="M24.7936 0.527176C24.5487 0.248901 24.1427 0.145704 23.7816 0.26954L0.849204 8.00021C0.391059 8.15554 0.069481 8.53221 0.00978113 8.98325C-0.0493466 9.43215 0.16275 9.86772 0.560622 10.1184L3.83859 12.2058C4.15616 12.4081 4.56452 12.4298 4.9046 12.2624L12.0152 8.76458L6.47339 12.6247C6.21323 12.806 6.05778 13.0951 6.05778 13.3979V16.9735C6.05778 17.3424 6.27465 17.6802 6.62369 17.8557C6.97331 18.0311 7.39559 18.0137 7.72766 17.8094L10.2181 16.2684L12.6671 17.8261C12.8817 17.9633 13.1373 18.0356 13.3951 18.0356C13.4823 18.0356 13.5699 18.0272 13.6561 18.0105C14 17.9436 14.3042 17.7454 14.4909 17.4667L24.8663 1.50719C25.0683 1.19991 25.0393 0.806696 24.7936 0.527176V0.527176ZM13.3404 16.5997L10.8042 14.9864C10.6278 14.874 10.4245 14.8178 10.2213 14.8178C10.0226 14.8178 9.82364 14.8717 9.6495 14.9795L7.52339 16.2951V13.5997L17.309 6.78356C17.746 6.47913 17.856 5.92507 17.5648 5.49485C17.2734 5.06462 16.6899 4.91926 16.2075 5.15661L4.45065 10.9401L1.67814 9.17452L22.7957 2.05573L13.3404 16.5997Z" fill="white"/>
</svg>
