<svg width="26" height="25" viewBox="0 0 26 25" fill="none" xmlns="http://www.w3.org/2000/svg">
<path d="M21.6408 3.81035C19.3304 1.64368 16.2592 0.450623 12.9916 0.450623C12.9914 0.450623 12.9907 0.450623 12.9905 0.450623C11.3743 0.450803 9.79942 0.74424 8.30975 1.32299C6.81988 1.90175 5.48511 2.73857 4.34221 3.81035C2.03197 5.97685 0.759755 8.85744 0.759755 11.9214C0.759755 13.7486 1.22989 15.5645 2.12069 17.1823L0.0646627 22.6905C-0.0802445 23.079 0.0223259 23.5013 0.332924 23.7924C0.550188 23.9964 0.836154 24.1046 1.1302 24.1046C1.25625 24.1046 1.38365 24.0848 1.50796 24.044L7.38161 22.1161C9.10683 22.9515 11.0432 23.3923 12.9916 23.3923C16.2589 23.3923 19.3304 22.1991 21.6408 20.0326C23.9511 17.8661 25.2235 14.9855 25.2235 11.9216C25.2235 8.85744 23.9513 5.97685 21.6408 3.81035V3.81035ZM20.5947 19.0516C18.5639 20.9562 15.8636 22.0049 12.9916 22.0049C11.2346 22.0049 9.48921 21.5974 7.94392 20.8261C7.66373 20.6864 7.33254 20.6624 7.03522 20.7601L1.69886 22.5115L3.56668 17.5072C3.67079 17.228 3.64501 16.9174 3.49606 16.6548C2.67376 15.206 2.23904 13.5692 2.23904 11.9214C2.23904 9.22812 3.3575 6.69582 5.38832 4.79137C7.41894 2.88709 10.1189 1.83822 12.9907 1.83786H12.9916C15.8638 1.83786 18.5639 2.88673 20.5947 4.79137C22.6257 6.69582 23.7442 9.22794 23.7442 11.9214C23.7442 14.6148 22.6257 17.1471 20.5947 19.0516V19.0516Z" fill="white"/>
<path d="M17.5374 12.9461C16.9748 12.4184 16.0591 12.4184 15.4964 12.9461L14.881 13.5232C13.3528 12.7423 12.1162 11.5827 11.2833 10.1496L11.8988 9.57246C12.4617 9.04477 12.4617 8.18612 11.8988 7.65844L10.2403 6.10318C9.67763 5.5755 8.762 5.5755 8.1993 6.10318L6.87262 7.34731C6.11268 8.05997 6.07477 9.28516 6.76582 10.7973C7.36585 12.1102 8.46391 13.5532 9.85775 14.8603C11.2516 16.1674 12.7903 17.1971 14.1903 17.7598C14.9564 18.0677 15.6533 18.2213 16.2554 18.2213C16.9207 18.2213 17.4703 18.0338 17.8692 17.6597L19.1959 16.4154V16.4155C19.4686 16.1598 19.6187 15.82 19.6187 15.4585C19.6187 15.0969 19.4686 14.7571 19.1959 14.5015L17.5374 12.9461ZM16.8231 16.6787C16.6062 16.882 15.9392 16.9533 14.7732 16.4848C13.542 15.99 12.1678 15.0646 10.9039 13.8793C9.63991 12.694 8.65327 11.4054 8.1256 10.2508C7.62583 9.15739 7.70185 8.53171 7.91872 8.32833L9.22 7.10802L10.8273 8.61545L10.0569 9.33803C9.70861 9.66467 9.62451 10.1601 9.84794 10.5708C10.8607 12.4332 12.4459 13.9197 14.4319 14.8695C14.87 15.079 15.3983 15.0003 15.7466 14.6735L16.5169 13.9511L18.1244 15.4585L16.8231 16.6787Z" fill="white"/>
</svg>
