<svg width="197" height="50" viewBox="0 0 197 50" fill="none" xmlns="http://www.w3.org/2000/svg">
<path d="M6.87602 13.0544H10.8L17.028 40.4H13.176L11.844 33.513H5.90402L4.50002 40.4H0.684021L6.87602 13.0544ZM11.304 30.7784L8.85602 18.456L6.44402 30.7784H11.304ZM27.5108 40.7038C25.4708 40.7038 23.8748 40.3212 22.7228 39.556C21.5948 38.7908 20.8148 37.7217 20.3828 36.3488C19.9508 34.9759 19.7348 33.2541 19.7348 31.1835V13.0544H23.6228V31.3523C23.6228 33.4229 23.8748 34.9984 24.3788 36.0787C24.9068 37.159 25.9508 37.6992 27.5108 37.6992C29.0708 37.6992 30.1028 37.159 30.6068 36.0787C31.1348 34.9984 31.3988 33.4229 31.3988 31.3523V13.0544H35.2508V31.1835C35.2508 33.2541 35.0348 34.9759 34.6028 36.3488C34.1708 37.7217 33.3908 38.7908 32.2628 39.556C31.1348 40.3212 29.5508 40.7038 27.5108 40.7038ZM42.7376 15.8902H37.8056V13.0544H51.5936V15.8902H46.8056V40.4H42.7376V15.8902ZM61.8567 40.7038C59.0007 40.7038 56.9487 39.9499 55.7007 38.4419C54.4767 36.9115 53.8647 34.7058 53.8647 31.825V21.4606C53.8647 18.6248 54.4887 16.4754 55.7367 15.0125C56.9847 13.5496 59.0247 12.8181 61.8567 12.8181C64.6887 12.8181 66.7167 13.5608 67.9407 15.0462C69.1887 16.5092 69.8127 18.6473 69.8127 21.4606V31.8587C69.8127 34.6946 69.1887 36.8777 67.9407 38.4082C66.6927 39.9386 64.6647 40.7038 61.8567 40.7038ZM61.8567 37.6992C63.3687 37.6992 64.3887 37.2828 64.9167 36.4501C65.4447 35.6173 65.7087 34.357 65.7087 32.669V20.6842C65.7087 19.0187 65.4447 17.7921 64.9167 17.0043C64.3887 16.1941 63.3687 15.789 61.8567 15.789C60.3207 15.789 59.2887 16.1941 58.7607 17.0043C58.2327 17.7921 57.9687 19.0187 57.9687 20.6842V32.669C57.9687 34.357 58.2327 35.6173 58.7607 36.4501C59.2887 37.2828 60.3207 37.6992 61.8567 37.6992ZM82.0375 13.0544H93.3415V15.8902H86.1055V24.9379H91.9735V27.6387H86.1055V37.6654H93.4135V40.4H82.0375V13.0544ZM100.982 26.0858L95.0057 13.0544H98.7857L103.214 22.7098L107.246 13.0544H111.026L104.906 26.3896L111.314 40.4H107.534L102.782 30.1032L98.6777 40.4H94.8977L100.982 26.0858ZM114.065 13.0544H121.301C123.821 13.0544 125.645 13.6958 126.773 14.9787C127.925 16.2616 128.501 18.1409 128.501 20.6166C128.501 22.8448 127.889 24.5778 126.665 25.8157C125.441 27.0536 123.665 27.6725 121.337 27.6725H118.133V40.4H114.065V13.0544ZM120.005 24.9379C121.205 24.9379 122.129 24.8141 122.777 24.5666C123.449 24.319 123.929 23.8914 124.217 23.2837C124.505 22.676 124.649 21.7982 124.649 20.6504C124.649 19.255 124.541 18.2309 124.325 17.5782C124.109 16.9256 123.677 16.4642 123.029 16.1941C122.405 15.924 121.409 15.789 120.041 15.789H118.133V24.9379H120.005ZM131.362 13.0544H137.23C140.182 13.0544 142.342 13.6283 143.71 14.7762C145.102 15.9015 145.798 17.747 145.798 20.3128C145.798 23.8238 144.598 25.9507 142.198 26.6934L146.338 40.4H142.414L138.598 27.5712H135.43V40.4H131.362V13.0544ZM136.978 24.8366C138.73 24.8366 139.978 24.5103 140.722 23.8576C141.49 23.2049 141.874 22.0233 141.874 20.3128C141.874 19.1875 141.742 18.3097 141.478 17.6795C141.214 17.0268 140.746 16.5542 140.074 16.2616C139.402 15.9465 138.454 15.789 137.23 15.789H135.43V24.8366H136.978ZM150.03 13.0544H161.334V15.8902H154.098V24.9379H159.966V27.6387H154.098V37.6654H161.406V40.4H150.03V13.0544ZM171.566 40.7038C169.118 40.7038 167.246 39.9949 165.95 38.577C164.678 37.159 163.97 35.2122 163.826 32.7365L167.426 31.825C167.546 33.5805 167.906 34.9984 168.506 36.0787C169.13 37.159 170.15 37.6992 171.566 37.6992C172.622 37.6992 173.414 37.4291 173.942 36.889C174.494 36.3263 174.77 35.5273 174.77 34.492C174.77 33.3667 174.518 32.4326 174.014 31.6899C173.51 30.9472 172.706 30.1257 171.602 29.2254L166.706 25.1742C165.722 24.364 165.002 23.4975 164.546 22.5747C164.114 21.6294 163.898 20.4816 163.898 19.1312C163.898 17.1281 164.51 15.5752 165.734 14.4723C166.958 13.3695 168.626 12.8181 170.738 12.8181C173.042 12.8181 174.782 13.392 175.958 14.5398C177.134 15.6877 177.842 17.4657 178.082 19.8739L174.626 20.7517C174.506 19.1537 174.17 17.9271 173.618 17.0718C173.09 16.1941 172.13 15.7552 170.738 15.7552C169.706 15.7552 168.914 16.014 168.362 16.5317C167.81 17.0268 167.534 17.7696 167.534 18.7598C167.534 19.5701 167.678 20.2565 167.966 20.8192C168.254 21.3594 168.746 21.9108 169.442 22.4734L174.374 26.5246C175.646 27.5825 176.654 28.7303 177.398 29.9682C178.166 31.206 178.55 32.6127 178.55 34.1882C178.55 36.1913 177.902 37.778 176.606 38.9483C175.31 40.1187 173.63 40.7038 171.566 40.7038ZM188.582 40.7038C186.134 40.7038 184.262 39.9949 182.966 38.577C181.694 37.159 180.986 35.2122 180.842 32.7365L184.442 31.825C184.562 33.5805 184.922 34.9984 185.522 36.0787C186.146 37.159 187.166 37.6992 188.582 37.6992C189.638 37.6992 190.43 37.4291 190.958 36.889C191.51 36.3263 191.786 35.5273 191.786 34.492C191.786 33.3667 191.534 32.4326 191.03 31.6899C190.526 30.9472 189.722 30.1257 188.618 29.2254L183.722 25.1742C182.738 24.364 182.018 23.4975 181.562 22.5747C181.13 21.6294 180.914 20.4816 180.914 19.1312C180.914 17.1281 181.526 15.5752 182.75 14.4723C183.974 13.3695 185.642 12.8181 187.754 12.8181C190.058 12.8181 191.798 13.392 192.974 14.5398C194.15 15.6877 194.858 17.4657 195.098 19.8739L191.642 20.7517C191.522 19.1537 191.186 17.9271 190.634 17.0718C190.106 16.1941 189.146 15.7552 187.754 15.7552C186.722 15.7552 185.93 16.014 185.378 16.5317C184.826 17.0268 184.55 17.7696 184.55 18.7598C184.55 19.5701 184.694 20.2565 184.982 20.8192C185.27 21.3594 185.762 21.9108 186.458 22.4734L191.39 26.5246C192.662 27.5825 193.67 28.7303 194.414 29.9682C195.182 31.206 195.566 32.6127 195.566 34.1882C195.566 36.1913 194.918 37.778 193.622 38.9483C192.326 40.1187 190.646 40.7038 188.582 40.7038Z" fill="white"/>
<path d="M0 5.23334H80" stroke="white" stroke-width="3"/>
<path d="M0 45.5578H80" stroke="white" stroke-width="3"/>
</svg>
